<svg width="1440" height="1068" viewBox="0 0 1440 1068" fill="none" xmlns="http://www.w3.org/2000/svg">
<path d="M59.8656 519.532C57.2525 510.396 45.71 497.174 53.5078 489.478C61.306 481.783 48.1261 465.106 43.1466 450.951C38.1675 436.795 40.1627 435.643 47.3475 431.495C54.5323 427.347 88.9597 410.93 90.057 406.837C91.1535 402.745 75.1895 375.858 75.1895 375.858C75.1895 375.858 30.8431 398.227 2.63614 415.31C1.34571 418.65 0.500683 420.901 0.339079 421.514C0.148467 422.235 -0.614717 427.589 -1.67795 435.851C-2.26909 440.445 -17.7391 451.523 -18.4772 457.611C-23.3437 497.958 -15.5875 559.082 -11.6986 565.817C-11.5798 566.023 -11.4264 566.259 -11.2975 566.475C-1.87863 562.164 7.9962 557.619 16.2781 553.744C40.5818 542.375 62.4794 528.667 59.8656 519.532Z" fill="#E6E9F0" stroke="white" stroke-width="4.4017" stroke-miterlimit="10"/>
<path d="M77.6375 343.224C91.3679 328.91 111.347 313.118 115.704 298.54C120.058 283.96 129.968 283.919 133.905 269.226C137.839 254.536 162.211 240.821 165.02 230.326C166.666 224.183 151.533 205.824 138.703 187.963C137.789 188.994 136.94 189.771 136.182 190.208C130.326 193.59 117.632 183.889 110.712 187.884C103.793 191.879 101.401 202.486 94.4845 206.479C91.2009 208.375 84.5427 208.301 78.3248 208.175C76.2542 208.131 70.4203 194.801 68.5921 194.817C64.3382 194.853 64.9208 208.521 64.4849 210.136C64.4849 210.136 67.2412 234.269 64.9914 242.665C62.7429 251.057 43.686 268.445 41.661 276C39.6364 283.556 33.7516 313.922 35.2869 316.581C36.8226 319.241 46.9938 335.015 45.5318 340.469C44.7705 343.313 24.2443 360.181 12.2976 380.234C5.02536 392.441 5.16124 408.765 2.63535 415.308C30.8423 398.225 75.1887 375.856 75.1887 375.856C75.1887 375.856 63.9041 357.54 77.6375 343.224Z" fill="#E6E9F0" stroke="white" stroke-width="4.4017" stroke-miterlimit="10"/>
<path d="M288.3 107.706C290.144 110.9 273.288 125.953 276.515 131.542C279.741 137.13 310.654 146.425 320.238 154.728C325.144 158.977 327.64 164.612 329.313 169.799C329.323 169.81 337.617 179.287 342.402 176.524C347.191 173.759 348.722 157.974 345.496 152.386C342.269 146.797 334.574 139 339.365 136.234C344.154 133.469 355.696 119.354 351.779 112.569C344.645 110.655 326.206 103.917 324.791 94.0905C324.283 90.5544 327.016 82.9151 323.044 78.4714C319.586 74.5977 309.518 74.0274 307.208 69.4778C304.803 64.7386 309.209 54.2649 307.154 53.7142C304.621 53.0356 293.536 71.8374 288.932 70.0884C285.655 68.8416 290.053 60.76 286.472 60.3696C282.595 59.9468 278.727 60.3679 275.255 62.372C268.158 66.4695 269.916 72.0329 270.372 76.5676L270.373 76.5699C283.398 89.8267 286.456 104.514 288.3 107.706Z" fill="#E6E9F0" stroke="white" stroke-width="4.4017" stroke-miterlimit="10"/>
<path d="M196.203 768.651C200.539 763.308 205.678 767.792 201.895 757.553C198.251 747.698 204.361 745.434 204.828 745.277C199.786 746.871 195.046 748.305 188.612 743.152C180.691 736.806 167.218 732.519 160.432 736.436C155.824 739.097 152.779 756.222 148.535 767.545C154.243 773.289 173.823 787.326 186.018 786.593C189.286 786.399 192.662 786.873 196.059 787.615C195.66 779.256 194.09 771.255 196.203 768.651Z" fill="#E6E9F0" stroke="white" stroke-width="4.4017" stroke-miterlimit="10"/>
<path d="M368.78 586.327C376.478 579.379 381.659 579.439 384.414 569.159C387.166 558.89 380.494 555.673 380.471 555.661C372.792 559.121 364.421 565.036 353.149 562.017C337.723 557.884 367.979 554.519 349.964 539.908C331.947 525.296 304.213 540.244 304.213 540.244C293.201 549.442 226.45 591.88 223.863 601.535C221.278 611.189 240.157 652.371 238.694 657.83C237.232 663.285 269.33 664.183 272.207 669.166C275.082 674.146 283.595 669.231 294.772 662.778C305.948 656.326 314.545 652.78 321.203 658.162C327.858 663.546 331.198 677.937 334.271 683.26C337.343 688.58 328.198 705.926 331.885 712.313C335.573 718.699 352.836 724.066 356.739 730.819C358.83 729.91 360.402 729.198 361.094 728.798C365.485 726.263 382.945 731.617 392.323 719.284C401.296 707.488 413.097 696.484 421.03 687.363C421.393 686.945 421.789 686.513 422.132 686.107C427.332 679.957 426.594 674.247 428.62 667.876C425.818 665.747 423.331 663.599 422.484 662.133C420.18 658.142 411.104 639.965 399.925 626.549C388.744 613.134 360.825 605.113 358.52 601.121C356.216 597.131 361.083 593.273 368.78 586.327Z" fill="#E6E9F0" stroke="white" stroke-width="4.4017" stroke-miterlimit="10"/>
<path d="M399.924 626.55C388.79 613.192 361.068 605.182 358.566 601.172C356.157 600.529 356.069 607.39 355.238 609.421C353.847 612.802 351.048 614.58 352.606 615.422C360.351 621.137 356.768 656.909 360.332 665.849C368.333 685.902 380.493 703.533 387.216 723.95C389.065 722.775 390.804 721.279 392.322 719.285C401.295 707.488 413.096 696.485 421.029 687.364C421.392 686.946 421.788 686.514 422.131 686.108C427.332 679.958 426.593 674.248 428.619 667.877C425.817 665.747 423.33 663.6 422.483 662.134C420.18 658.143 411.104 639.967 399.924 626.55Z" fill="#E6E9F0" stroke="white" stroke-width="4.4017" stroke-miterlimit="10"/>
<path d="M392.319 668.665C378.157 655.413 376.883 631.825 360.75 620.409C356.841 617.643 342.868 609.254 337.935 609.985C331.394 610.956 323.135 621.57 313.186 625.452C304.651 628.787 303.94 627.571 303.915 636.63C303.887 645.353 307.318 645.779 312.935 650.727C315.473 652.962 317.557 654.902 319.392 657.035C320.005 657.377 320.62 657.694 321.204 658.165C327.859 663.548 331.199 677.939 334.272 683.262C337.343 688.582 328.199 705.928 331.886 712.315C335.573 718.702 352.837 724.068 356.74 730.821C358.831 729.912 360.403 729.2 361.095 728.8C365.486 726.265 382.946 731.619 392.324 719.286C401.297 707.49 413.097 696.487 421.031 687.365C421.394 686.948 421.79 686.516 422.132 686.109C423.123 684.939 423.843 683.787 424.464 682.643C413.652 678.062 401.306 677.073 392.319 668.665Z" fill="#E6E9F0" stroke="white" stroke-width="4.4017" stroke-miterlimit="10"/>
<path d="M256.062 767.799C254.218 764.606 244.631 751.688 242.481 747.965C240.33 744.238 248.606 728.463 245.686 723.405C242.767 718.35 222.86 702.219 224.309 696.821C221.898 688.634 210.685 685.071 204.711 674.724C199.524 665.74 187.738 664.691 185.338 664.047C180.512 662.754 173.527 677.078 167.682 682.934C164.555 686.066 158.543 689.733 148.52 693.985C139.806 697.686 128.071 701.825 112.435 706.466C78.8577 716.434 75.3158 727.873 75.3064 727.899C86.362 729.606 100.708 729.781 102.697 733.227C105.771 738.55 123.189 755.203 128.513 752.129C133.833 749.058 144.902 762.081 147.053 765.806C147.291 766.218 147.821 766.827 148.536 767.545C152.779 756.222 155.823 739.097 160.432 736.436C167.218 732.518 180.691 736.806 188.612 743.151C195.046 748.305 199.785 746.87 204.828 745.277C205.995 744.907 207.173 744.535 208.394 744.229C214.904 742.599 223.774 766.57 231.97 766.628C223.774 766.57 214.903 742.599 208.394 744.229C207.172 744.535 205.995 744.908 204.828 745.277C204.361 745.434 198.252 747.698 201.895 757.552C205.678 767.791 200.54 763.307 196.203 768.651C194.09 771.255 195.66 779.255 196.058 787.615C206.918 789.976 218.049 795.067 226.967 789.918C238.673 783.16 270.012 793.805 275.467 795.267C278.034 795.955 282.46 793.163 287.149 789.275C287.142 789.262 279.748 772.567 278.357 767.7C276.961 762.826 257.905 770.992 256.062 767.799Z" fill="#E6E9F0"/>
<path d="M148.52 693.985C158.543 689.733 164.555 686.066 167.682 682.934C173.527 677.078 180.512 662.754 185.338 664.047C187.738 664.691 199.524 665.74 204.711 674.724C210.685 685.071 221.898 688.634 224.309 696.821C222.86 702.219 242.767 718.35 245.686 723.405C248.606 728.463 240.33 744.238 242.481 747.965C244.631 751.688 254.218 764.606 256.062 767.799C257.905 770.992 276.961 762.826 278.357 767.7C279.748 772.567 287.142 789.262 287.149 789.275C282.46 793.163 278.034 795.955 275.467 795.267C270.012 793.805 238.673 783.16 226.967 789.918C218.049 795.067 206.918 789.976 196.058 787.615C195.66 779.255 194.09 771.255 196.203 768.651C200.54 763.307 205.678 767.791 201.895 757.552C198.252 747.698 204.361 745.434 204.828 745.277M148.52 693.985L148.523 693.996M148.52 693.985C139.806 697.686 128.071 701.825 112.435 706.466C78.8577 716.434 75.3158 727.873 75.3064 727.899C86.362 729.606 100.708 729.781 102.697 733.227C105.771 738.55 123.189 755.203 128.513 752.129C133.833 749.058 144.902 762.081 147.053 765.806C147.291 766.218 147.821 766.827 148.536 767.545C152.779 756.222 155.823 739.097 160.432 736.436C167.218 732.518 180.691 736.806 188.612 743.151C195.046 748.305 199.785 746.87 204.828 745.277M204.828 745.277C204.848 745.269 204.876 745.261 204.876 745.261M204.828 745.277C205.995 744.907 207.173 744.535 208.394 744.229M204.828 745.277C205.995 744.908 207.172 744.535 208.394 744.229M208.394 744.229C214.904 742.599 223.774 766.57 231.97 766.628M208.394 744.229C214.903 742.599 223.774 766.57 231.97 766.628M231.97 766.628C240.165 766.687 239.925 755.828 244.124 756.95C248.319 758.074 252.957 763.147 252.957 763.147" stroke="white" stroke-width="4.4017" stroke-miterlimit="10"/>
<path d="M102.264 732.715C108.691 725.762 118.345 712.03 117.652 704.888C115.957 705.409 114.23 705.932 112.435 706.466C78.8572 716.434 75.3153 727.872 75.3058 727.898C85.7791 729.518 99.1858 729.766 102.264 732.715Z" fill="#E6E9F0" stroke="white" stroke-width="4.4017" stroke-miterlimit="10"/>
<path d="M272.956 766.203L235.604 787.768C249.798 786.933 271.064 794.088 275.468 795.267C278.035 795.955 282.46 793.163 287.15 789.274C287.142 789.262 279.748 772.567 278.357 767.7C277.923 766.178 275.766 765.927 272.956 766.203Z" fill="#E6E9F0" stroke="white" stroke-width="4.4017" stroke-miterlimit="10"/>
<path d="M256.061 767.799C254.217 764.606 252.956 763.148 252.956 763.148C252.956 763.148 248.318 758.074 244.123 756.951C239.924 755.828 240.164 766.687 231.969 766.629C223.773 766.571 214.902 742.599 208.393 744.23C207.171 744.536 205.994 744.909 204.827 745.278C204.36 745.435 198.251 747.699 201.894 757.553C205.677 767.792 200.539 763.308 196.202 768.651C194.089 771.256 195.659 779.256 196.057 787.616C206.917 789.977 218.048 795.068 226.966 789.919C238.672 783.161 270.011 793.806 275.466 795.268C278.033 795.956 282.459 793.164 287.148 789.275C287.141 789.262 279.746 772.568 278.356 767.701C276.961 762.827 257.905 770.992 256.061 767.799Z" fill="#E6E9F0" stroke="white" stroke-width="4.4017" stroke-miterlimit="10"/>
<path d="M112.435 706.466C128.07 701.825 139.805 697.686 148.52 693.985C146.52 690.521 142.939 681.25 138.844 677.231C134.747 673.21 123.778 670.495 121.092 657.856C118.407 645.211 109.041 647.425 109.041 647.425C102.52 651.189 66.7112 629.113 61.0223 635.233C57.0371 639.521 45.8356 642.762 33.09 648.008C30.2674 655.002 24.5921 663.089 28.0902 669.148C32.0851 676.067 52.1115 713.821 56.4146 721.274C57.9305 723.9 69.2846 726.966 75.3059 727.896C75.3162 727.872 78.8578 716.434 112.435 706.466Z" fill="#E6E9F0" stroke="white" stroke-width="4.4017" stroke-miterlimit="10"/>
<path d="M334.272 683.261C331.198 677.938 327.858 663.547 321.203 658.163C314.545 652.781 305.948 656.327 294.772 662.779C283.596 669.232 275.083 674.147 272.207 669.167C272.207 669.167 266.581 665.571 259.482 671.093C252.378 676.613 245.272 672.91 239.419 676.289C233.566 679.669 225.754 691.422 224.31 696.821C222.861 702.218 242.768 718.35 245.686 723.405C248.606 728.463 240.33 744.238 242.482 747.964C244.632 751.688 254.219 764.606 256.062 767.799C257.906 770.992 276.961 762.826 278.357 767.699C279.749 772.567 287.143 789.262 287.15 789.274C292.423 784.898 298.03 779.142 301.732 775.312C308.732 768.078 304.189 768.505 315.916 757.477C325.794 748.186 345.56 735.697 356.739 730.819C352.836 724.066 335.572 718.699 331.885 712.313C328.198 705.927 337.343 688.581 334.272 683.261Z" fill="#E6E9F0" stroke="white" stroke-width="4.4017" stroke-miterlimit="10"/>
<path d="M1192.7 685.078C1183.88 682.716 1171.75 681.832 1173.69 674.588C1175.63 667.347 1177.89 653.847 1172.19 649.554C1167.15 648.205 1156.11 632.761 1153.11 627.571C1150.11 622.383 1133.52 631.433 1113.28 631.409C1093.04 631.383 1073.47 638.96 1068.63 630.578C1068.63 630.578 1044.25 654.412 1045.69 669.192C1047.13 683.972 1055.21 685.691 1059.82 693.673C1064.43 701.655 1068.44 720.473 1072.82 721.648C1077.2 722.824 1092.09 714.072 1094.24 717.793C1096.39 721.521 1095.43 732.006 1087.45 736.615C1079.47 741.224 1050.91 728.624 1044.52 732.311C1038.13 735.998 1012.48 744.42 1000.73 741.271C988.978 738.12 982.922 747.296 982.246 749.814C981.571 752.333 989.621 762.587 993 768.441C996.379 774.293 1012.95 779.631 1007.62 782.704C1002.3 785.778 976.928 807.743 975.832 811.836C974.736 815.927 994.893 861.283 1002.97 863.45C1010 865.33 1024.53 871.861 1027.31 876.842C1027.31 876.842 1035.59 882.104 1042.81 876.652C1049.32 871.738 1047.11 864.746 1059.41 856.008C1060.77 855.035 1062.27 854.051 1064.02 853.039C1081.58 842.9 1094.15 850.847 1100.83 837.525C1107.51 824.202 1109.14 806.76 1113.54 804.224C1117.93 801.69 1114.27 787.214 1116.27 786.062C1118.26 784.91 1131.37 772.641 1129.99 770.245C1126.28 765.961 1121.34 761.241 1122.64 756.392C1124.33 750.096 1162.51 722.198 1163.86 717.162C1163.86 717.162 1175.61 722.085 1182.06 715.166C1188.51 708.247 1196.91 707.123 1199.45 711.514C1201.98 715.905 1203.04 728.334 1208.47 734.512C1213.9 740.693 1221.98 739.484 1224.68 729.41C1227.38 719.334 1218.89 711.998 1218.22 704.398C1217.56 696.802 1201.51 687.44 1192.7 685.078Z" fill="#E6E9F0" stroke="white" stroke-width="4.4017" stroke-miterlimit="10"/>
<path d="M1192.7 685.078C1183.88 682.716 1171.75 681.832 1173.69 674.588C1175.63 667.348 1177.89 653.847 1172.19 649.554C1167.15 648.205 1156.11 632.761 1153.11 627.571C1150.4 622.886 1136.6 629.793 1119.04 631.161C1131.71 637.129 1146.6 641.561 1147.43 657.97C1147.72 663.739 1145.73 669.719 1147.45 675.486C1149.45 682.159 1155.32 687.561 1158.52 693.748C1159.89 696.385 1159.69 697.9 1158.77 699.01C1154.86 703.704 1154.84 710.446 1159.7 714.161C1161.98 715.904 1163.82 717.303 1163.86 717.165C1163.86 717.165 1175.61 722.088 1182.06 715.169C1188.51 708.25 1196.91 707.126 1199.45 711.517C1201.98 715.908 1203.04 728.337 1208.47 734.515C1213.9 740.696 1221.98 739.487 1224.68 729.413C1227.38 719.337 1218.89 712.001 1218.22 704.4C1217.56 696.802 1201.51 687.441 1192.7 685.078Z" fill="#E6E9F0" stroke="white" stroke-width="4.4017" stroke-miterlimit="10"/>
<path d="M1237.65 937.767C1232.17 943.645 1237.74 959.846 1239.76 963.341C1241.78 966.838 1248.37 968.005 1255.34 967.172C1262.31 966.34 1264.26 962.382 1264.82 960.277C1265.38 958.168 1265.27 952.893 1259.71 944.953C1257.89 944.464 1254.53 938.151 1250.85 930.144C1250.85 930.145 1243.12 931.886 1237.65 937.767Z" fill="#E6E9F0" stroke="white" stroke-width="4.4017" stroke-miterlimit="10"/>
<path d="M339.364 136.235C334.574 139.001 342.269 146.799 345.495 152.387C348.722 157.975 347.19 173.76 342.402 176.525C337.618 179.287 329.322 169.811 329.312 169.8C330.91 174.748 331.757 179.291 333.221 181.826C336.217 187.015 358.073 203.668 364.678 215.109C371.285 226.553 363.717 239.259 366.252 243.649C368.787 248.04 379.418 259.998 391.695 263.287C403.973 266.577 399.11 259.539 413.905 263.503C425.384 266.575 432.296 266.211 427.207 280.218C427.207 280.21 433.658 269.13 442.835 263.831C452.015 258.531 481.245 266.689 491.622 260.698C502 254.707 511.226 232.496 525.878 232.064C540.53 231.63 674.146 228.462 674.146 228.462C672.763 226.067 674.084 187.796 671.089 182.607C670.511 181.606 668.593 178.285 665.788 173.426C654.087 153.16 626.755 105.82 614.859 85.2141C600.11 59.6685 578.81 52.274 576.702 41.2506C575.514 35.0134 567.496 24.0347 560.758 15.6758C552.501 18.5804 545.446 21.3312 540.574 24.1439C532.753 28.6592 520.328 17.7467 510.24 21.0796C501.798 23.8711 477.487 41.3212 475.548 48.5614C474.117 53.9027 497.052 69.055 501.045 75.9714C505.04 82.891 492.342 96.6967 477.952 100.04C463.559 103.382 452.4 96.3403 441.673 101.116C430.946 105.892 411.293 108.723 405.171 103.031C399.046 97.3416 358.915 114.482 351.779 112.569C355.695 119.355 344.154 133.47 339.364 136.235Z" fill="#E6E9F0" stroke="white" stroke-width="4.4017" stroke-miterlimit="10"/>
<path d="M722.495 -50.3725L708.568 -58.4684C707.032 -52.5082 692.124 -48.451 682.205 -42.7239C670.495 -35.9634 665.025 -49.1246 654.18 -37.1869C643.334 -25.2455 644.36 -17.3227 616.21 -4.62196C597.604 3.77599 576.857 10.0121 560.757 15.6775C567.495 24.0364 575.513 35.0151 576.702 41.2523C578.809 52.2757 600.109 59.6703 614.858 85.2159C626.755 105.822 654.087 153.162 665.787 173.428C665.787 173.428 668.182 172.046 698.747 154.93C729.314 137.814 782.94 112.708 796.672 102.386C806.82 94.7595 819.732 64.7655 825.785 49.6194C822.554 47.5395 819.133 44.9323 815.286 41.5236C799.293 27.3407 730.021 -2.91546 711.224 -13.3513C692.427 -23.7867 689.776 -30.6831 691.378 -36.6642C692.981 -42.6462 720.519 -20.7589 735.63 -16.7094C750.74 -12.6606 740.549 -22.4758 737.783 -27.2667C736.227 -29.961 742.439 -30.1501 749.797 -29.3597C746.22 -34.4698 722.495 -50.3725 722.495 -50.3725Z" fill="#E6E9F0" stroke="white" stroke-width="4.4017" stroke-miterlimit="10"/>
<path d="M418.045 606.509C419.394 601.473 433.495 593.332 431.016 584.118C430.058 580.559 418.466 568.833 411.54 566.977C404.614 565.121 399.019 553.276 388.8 553.4C386.044 553.432 383.307 554.385 380.472 555.661C380.494 555.673 387.166 558.89 384.414 569.159C381.659 579.44 376.478 579.379 368.78 586.327C361.082 593.274 356.216 597.131 358.521 601.123C360.825 605.115 388.744 613.136 399.925 626.551C411.105 639.967 420.18 658.143 422.484 662.135C423.331 663.601 425.819 665.748 428.62 667.878C429.674 664.562 431.468 661.074 435.266 657.239C436.563 655.933 438.123 654.712 439.853 653.56C439.852 653.557 439.853 653.551 439.854 653.546C440.577 650.845 416.695 611.547 418.045 606.509Z" fill="#E6E9F0" stroke="white" stroke-width="4.4017" stroke-miterlimit="10"/>
<path d="M637.827 660.565C634.68 659.722 622.347 649.422 622.347 649.422C616.747 652.872 611.061 656.417 605.515 659.934C603.761 667.167 601.809 675.394 607.183 680.92C609.262 683.059 611.371 685.155 613.369 687.226C618.497 682.649 623.979 678.142 628.406 675.586C639.582 669.134 640.976 661.409 637.827 660.565Z" fill="#E6E9F0" stroke="white" stroke-width="4.4017" stroke-miterlimit="10"/>
<path d="M956.424 184.23C957.485 183.057 958.521 181.685 959.507 180.085" stroke="white" stroke-width="4.4017" stroke-miterlimit="10"/>
<path d="M1177.11 412.29C1178.55 413.902 1181 414.95 1183.95 415.656C1182.12 414.892 1179.82 413.762 1177.11 412.29Z" fill="#E6E9F0" stroke="white" stroke-width="4.4017" stroke-miterlimit="10"/>
<path d="M951.579 188.311C953.185 187.318 954.831 185.993 956.423 184.229" stroke="white" stroke-width="4.4017" stroke-miterlimit="10"/>
<path d="M949.834 189.27C944.686 191.788 940.376 191.129 940.376 191.129C940.376 191.13 944.685 191.788 949.834 189.27Z" fill="#E6E9F0"/>
<path d="M940.376 191.129C940.376 191.129 944.686 191.788 949.834 189.27C944.685 191.788 940.376 191.13 940.376 191.129ZM940.376 191.129C941.756 194.132 942.74 197.032 943.355 199.754" stroke="white" stroke-width="4.4017" stroke-miterlimit="10"/>
<path d="M925.475 170.915C932.543 177.648 937.388 184.63 940.377 191.13C940.377 191.13 944.686 191.789 949.834 189.27C950.408 188.989 950.989 188.677 951.58 188.312C953.186 187.318 954.833 185.994 956.425 184.23C957.485 183.056 958.522 181.684 959.507 180.085C967.38 167.298 956.018 166.053 962.404 162.366C968.791 158.679 1008.87 152.92 1016.29 154.907C1022.26 156.508 1041.44 156.019 1049.72 151.807C1025.49 146.93 996.379 149.175 986.841 138.324C976.5 126.553 943.114 118.507 928.424 114.573C928.424 114.573 919.358 133.287 910.312 138.51C901.265 143.733 909.704 155.893 925.475 170.915Z" fill="#E6E9F0" stroke="white" stroke-width="4.4017" stroke-miterlimit="10"/>
<path d="M588.983 436.151C592.362 442.004 606.122 457.931 608.966 462.857C611.807 467.778 619.287 461.605 622.394 466.988C625.5 472.367 604.075 481.81 602.978 485.902C601.882 489.994 604.54 496.442 608.632 497.539C612.725 498.635 635.211 496.563 637.746 500.954C640.281 505.345 649.813 521.394 648.38 526.747C648.743 525.402 649.458 518.374 651.115 516.561C660.525 506.251 676.131 496.409 687.54 481.781C693.393 474.276 694.178 469.974 695.66 461.293C697.346 451.422 703.968 449.411 711.395 442.658C717.585 437.034 722.585 431.578 724.339 423.23C725.975 415.434 722.664 407.359 724.305 399.809C726.191 391.127 751.847 382.685 754.882 384.895C751.848 382.684 747.13 379.612 741.87 376.263C728.048 367.462 710.405 356.714 709.069 354.4C707.226 351.207 697.908 312.946 696.784 304.547C695.661 296.148 709.778 288.796 710.705 285.334C711.633 281.871 675.528 230.856 674.145 228.462C674.145 228.462 540.528 231.629 525.877 232.064C511.225 232.495 501.999 254.706 491.621 260.698C491.621 260.698 504.579 277.676 507.344 282.466C510.11 287.256 524.545 285.217 528.558 292.167C532.573 299.122 555.498 346.203 557.956 350.46C560.416 354.72 539.812 401.384 541.963 405.109C544.115 408.836 549.187 426.838 555.482 428.526C559.049 429.481 568.232 429.925 576.143 431.191C582.202 432.157 587.517 433.613 588.983 436.151Z" fill="#E6E9F0" stroke="white" stroke-width="4.4017" stroke-miterlimit="10"/>
<path d="M724.305 399.808C722.664 407.358 725.976 415.433 724.339 423.23C722.584 431.577 717.586 437.033 711.395 442.657C703.967 449.411 697.345 451.422 695.66 461.292C694.177 469.973 693.393 474.276 687.539 481.781C676.131 496.409 660.525 506.25 651.114 516.56C649.458 518.373 648.743 525.401 648.379 526.746C646.947 532.098 656.438 564.67 658.742 568.662C661.047 572.654 701.212 586.452 705.934 587.717C705.934 587.717 734.933 553.433 740.385 550.276C739.838 548.181 739.281 546.532 738.715 545.552C734.413 538.1 738.195 518.531 745.111 514.539C752.03 510.544 751.493 518.521 755.247 516.353C759.005 514.184 796.66 515.021 804.509 510.489C812.361 505.956 804.862 491.124 813.1 483.271C821.34 475.42 841.685 458.426 864.733 447.955C887.781 437.487 881.152 430.397 881.151 430.394C865.354 425.568 815.849 410.002 808.721 408.094C800.537 405.899 774.651 414.991 773.499 412.995C772.346 410.999 765.893 392.906 754.88 384.894C751.847 382.684 726.191 391.127 724.305 399.808Z" fill="#E6E9F0" stroke="white" stroke-width="4.4017" stroke-miterlimit="10"/>
<path d="M1212.59 70.2767C1210.45 70.3253 1203.06 76.8206 1201.77 81.6453C1200.47 86.4722 1176.24 126.542 1164.8 133.147C1153.36 139.753 1156.53 148.926 1138.2 157.734C1119.86 166.542 1116.73 172.503 1108.28 175.36C1094.92 179.879 1085.48 169.618 1085.48 169.618C1084.94 175.238 1085.21 180.886 1086.13 182.473C1087.97 185.666 1086.46 187.957 1081.67 190.722C1084.86 188.878 1108.69 238.393 1143.56 237.698C1159.11 237.391 1124.2 255.786 1164.85 220.5L1142 310.586C1144.39 309.203 1133.31 335.471 1136.69 341.328C1140.07 347.181 1172.11 403.903 1176.41 411.352C1176.6 411.688 1176.84 411.995 1177.11 412.29C1179.82 413.761 1182.12 414.892 1183.95 415.655C1185.39 415.995 1186.93 416.266 1188.54 416.47C1191.06 410.328 1197.03 378.866 1200.63 365.433C1204.23 352.002 1215.67 347.91 1222.82 321.254C1229.96 294.605 1234.76 266.611 1237.01 258.214C1239.26 249.819 1234.29 247.364 1233.86 235.552C1233.43 223.741 1244.89 215.789 1246.88 208.337C1248.88 200.88 1239.45 201.942 1238.43 178.05C1237.41 154.158 1228.17 131.683 1226.02 127.961C1223.87 124.234 1227.06 119.913 1228.12 115.926C1229.19 111.937 1214.73 70.2241 1212.59 70.2767Z" fill="#E6E9F0" stroke="white" stroke-width="4.4017" stroke-miterlimit="10"/>
<path d="M1151.21 486.928C1149.98 484.8 1142.3 471.494 1139.84 467.238C1137.38 462.978 1063.25 471.007 1058.21 469.658C1053.18 468.309 1045.25 450.888 1043.75 439.691C1042.25 428.49 1052.71 414.648 1042.6 405.743C1032.49 396.834 1007.81 378.318 1007.81 378.318C1012.6 375.552 1025.13 358.389 1025.15 358.384C1018.95 357.417 1014.59 357.646 1006.06 355.363C994.73 352.326 979.777 332.573 970.546 330.099C961.31 327.627 946.999 332.339 943.62 326.486C940.241 320.633 948.449 315.182 953.772 312.109C959.092 309.037 939.023 286.563 936.565 282.307C934.106 278.047 943.213 269.243 938.604 261.26C933.995 253.277 941.008 220.967 943.52 211.588C943.868 210.293 944.076 208.868 944.132 207.33C944.219 205.031 943.969 202.481 943.355 199.754C942.739 197.033 941.756 194.133 940.376 191.13C937.388 184.631 932.543 177.65 925.475 170.915C909.704 155.893 901.265 143.734 910.312 138.511C919.358 133.288 928.424 114.575 928.424 114.575C913.731 110.638 873.703 65.2727 856.913 60.7714C844.161 57.3565 835.987 56.1894 825.785 49.6175C819.731 64.7634 806.82 94.7569 796.672 102.384C782.941 112.706 729.314 137.813 698.747 154.929C668.182 172.044 665.787 173.426 665.787 173.426C668.592 178.284 670.51 181.605 671.088 182.607C674.084 187.796 672.763 226.067 674.146 228.462C675.528 230.857 711.634 281.872 710.706 285.334C709.778 288.797 695.662 296.148 696.785 304.547C697.909 312.946 707.226 351.207 709.07 354.4C710.406 356.714 728.049 367.462 741.87 376.263C747.131 379.613 751.848 382.684 754.882 384.895C765.895 392.907 772.349 411.001 773.501 412.997C774.653 414.993 800.539 405.9 808.723 408.095C815.851 410.003 865.357 425.57 881.153 430.395C883.495 431.114 885.11 431.598 885.72 431.761C890.443 433.026 920.817 417.884 934.038 421.427C947.26 424.971 960.269 431.829 965.569 441.009C970.87 450.19 966.615 496.286 968.69 499.879C970.763 503.471 989.532 520.31 987.317 529.838C985.536 537.497 982.236 542.799 990.025 557.337C991.928 560.884 994.465 564.96 997.871 569.78C1015.24 594.341 1026.43 615.56 1033.36 617.414C1040.28 619.271 1063.79 622.194 1068.63 630.578C1073.47 638.96 1093.04 631.383 1113.28 631.409C1133.52 631.432 1150.12 622.383 1153.11 627.571C1156.11 632.76 1167.15 648.204 1172.19 649.554C1177.23 650.904 1202.94 635.524 1218.11 626.768C1233.28 618.01 1221.46 610.461 1232.64 604.007C1243.82 597.555 1244.12 588.863 1255.3 582.411C1249.95 580.978 1222.17 563.75 1217.33 555.368C1212.49 546.985 1211.92 529.401 1208.93 524.213C1205.93 519.023 1185.34 521.152 1183.82 512.985C1183.06 508.918 1182.32 496.662 1181.62 484.548C1167.39 486.294 1151.88 488.099 1151.21 486.928Z" fill="#E6E9F0" stroke="white" stroke-width="4.4017" stroke-miterlimit="10"/>
<path d="M1217.33 555.369L1215.57 511.503C1214.62 509.86 1206.14 518.361 1202.82 517.627C1195.67 516.044 1184.85 518.561 1183.81 512.986C1183.06 508.919 1182.32 496.664 1181.62 484.549C1167.39 486.295 1151.88 488.1 1151.2 486.928L1139.84 467.238C1137.38 462.978 1063.25 471.008 1058.21 469.659C1057.64 469.503 1057.03 469.118 1056.39 468.581C1053.5 466.73 1046.66 470.292 1037.68 476.017C1028.09 482.132 1016.06 490.709 1003.81 497.78C989.805 505.867 978.554 511.735 982.531 516.545C985.827 521.273 988.181 526.114 987.312 529.838C985.531 537.497 982.231 542.8 990.021 557.337C991.923 560.884 994.461 564.96 997.866 569.78C1015.24 594.341 1026.43 615.56 1033.35 617.415C1040.28 619.271 1063.79 622.195 1068.63 630.578C1073.47 638.96 1093.04 631.383 1113.28 631.409C1133.52 631.433 1150.11 622.383 1153.11 627.571C1156.1 632.761 1167.15 648.205 1172.18 649.554C1177.22 650.905 1202.94 635.525 1218.1 626.768C1233.27 618.011 1221.46 610.461 1232.64 604.008C1243.81 597.555 1244.12 588.864 1255.29 582.411C1249.95 580.978 1222.17 563.751 1217.33 555.369Z" fill="#E6E9F0" stroke="white" stroke-width="4.4017" stroke-miterlimit="10"/>
<path d="M910.312 138.511C919.359 133.288 928.425 114.575 928.425 114.575C913.732 110.638 873.703 65.2726 856.914 60.7713C844.162 57.3563 835.987 56.1894 825.786 49.6175C819.732 64.7633 806.821 94.7568 796.673 102.384C782.941 112.706 729.315 137.813 698.748 154.929C668.183 172.044 665.788 173.426 665.788 173.426L671.089 182.607C674.084 187.796 672.763 226.067 674.146 228.462C675.529 230.857 711.634 281.872 710.707 285.334C709.778 288.797 695.662 296.148 696.786 304.547C697.909 312.946 707.227 351.207 709.07 354.4C710.406 356.714 728.049 367.462 741.871 376.263C747.132 379.613 751.849 382.684 754.883 384.895C765.895 392.907 772.349 411.001 773.501 412.997C774.654 414.993 800.54 405.9 808.724 408.095C815.852 410.003 865.357 425.57 881.153 430.395C883.496 431.114 885.111 431.598 885.721 431.761C890.444 433.026 920.818 417.884 934.039 421.427C936.582 422.108 939.1 422.95 941.573 423.868C948.543 422.92 955.566 422.158 962.314 419.14C980.137 411.158 991.252 389.872 1007.81 378.318C1012.6 375.553 1025.13 358.389 1025.15 358.385C1018.95 357.418 1014.59 357.646 1006.06 355.364C994.729 352.327 979.777 332.574 970.546 330.1C961.31 327.627 946.999 332.34 943.62 326.486C940.24 320.633 948.449 315.182 953.771 312.11C959.092 309.038 939.023 286.564 936.565 282.307C934.106 278.047 943.213 269.244 938.603 261.261C933.994 253.277 941.008 220.968 943.52 211.588C943.868 210.294 944.076 208.869 944.132 207.331C944.218 205.031 943.969 202.481 943.355 199.755C942.739 197.033 941.756 194.134 940.376 191.131C937.388 184.631 932.543 177.65 925.474 170.915C909.704 155.893 901.266 143.734 910.312 138.511Z" fill="#E6E9F0" stroke="white" stroke-width="4.4017" stroke-miterlimit="10"/>
<path d="M1062.67 186.085C1066.05 191.938 1076.88 193.489 1081.67 190.723C1086.46 187.957 1087.97 185.667 1086.13 182.473C1085.21 180.887 1084.94 175.238 1085.48 169.619C1079.59 164.925 1072.52 159.745 1063.98 156.078C1064.04 157.428 1063.95 158.926 1063.52 160.525C1062.02 166.117 1059.29 180.228 1062.67 186.085Z" fill="#E6E9F0" stroke="white" stroke-width="4.4017" stroke-miterlimit="10"/>
<path d="M962.403 162.367C956.016 166.054 967.379 167.299 959.506 180.085C958.521 181.685 957.484 183.057 956.424 184.23C954.831 185.994 953.185 187.319 951.579 188.312C950.989 188.678 950.406 188.989 949.833 189.27C944.685 191.789 940.375 191.13 940.375 191.13C941.755 194.133 942.739 197.033 943.354 199.754C943.969 202.481 944.218 205.031 944.131 207.33C944.075 208.868 943.868 210.293 943.52 211.588C941.007 220.967 933.994 253.277 938.603 261.26C943.212 269.243 934.105 278.047 936.565 282.307C939.022 286.563 959.092 309.037 953.771 312.109C948.449 315.182 940.24 320.633 943.619 326.486C946.998 332.339 961.309 327.627 970.545 330.099C979.777 332.574 994.729 352.326 1006.06 355.363C1014.59 357.645 1018.95 357.417 1025.15 358.384C1027.19 358.703 1029.42 359.148 1032.07 359.858C1042.78 362.726 1078.36 355.843 1095.03 349.057C1111.69 342.277 1111.32 326.88 1117.7 323.193C1124.09 319.505 1139.61 311.969 1142 310.586L1161.1 280.443L1181.53 261.461C1185 258.245 1187.42 254.076 1188.5 249.465C1192.39 232.757 1201.95 191.777 1203.38 186.447C1203.99 184.191 1164.84 202.96 1147.13 203.316C1112.08 204.015 1084.74 188.953 1081.67 190.722C1076.88 193.487 1066.05 191.937 1062.67 186.084C1059.29 180.227 1062.02 166.116 1063.52 160.523C1063.95 158.924 1064.04 157.427 1063.98 156.077C1061.36 154.955 1058.63 153.962 1055.74 153.185C1053.78 152.66 1051.76 152.216 1049.72 151.807C1041.44 156.02 1022.26 156.509 1016.29 154.907C1008.87 152.921 968.789 158.679 962.403 162.367Z" fill="#E6E9F0" stroke="white" stroke-width="4.4017" stroke-miterlimit="10"/>
<path d="M1177.11 412.29C1176.84 411.996 1176.6 411.689 1176.41 411.353C1172.11 403.903 1140.07 347.181 1136.69 341.329C1133.31 335.472 1144.39 309.204 1142 310.586C1139.61 311.969 1124.09 319.505 1117.7 323.193C1111.32 326.88 1111.69 342.277 1095.03 349.058C1078.37 355.842 1042.78 362.726 1032.07 359.859C1029.42 359.148 1027.19 358.703 1025.15 358.385C1025.13 358.389 1012.6 375.553 1007.81 378.318C1007.81 378.318 1032.49 396.834 1042.6 405.743C1052.71 414.649 1042.25 428.491 1043.75 439.691C1045.25 450.888 1053.18 468.311 1058.21 469.659C1063.25 471.008 1137.38 462.978 1139.84 467.238C1142.3 471.494 1149.98 484.8 1151.21 486.928C1151.88 488.1 1167.39 486.295 1181.62 484.549C1180.91 472.328 1180.24 460.249 1179.62 456.865C1178.39 450.124 1167.32 444.275 1172.78 437.396C1177.69 431.221 1186.52 425.749 1188.54 416.472C1186.93 416.268 1185.39 415.997 1183.95 415.657C1181 414.951 1178.55 413.902 1177.11 412.29Z" fill="#E6E9F0" stroke="white" stroke-width="4.4017" stroke-miterlimit="10"/>
<path d="M762.789 731.05C768.642 727.671 765.918 688.795 761.31 680.814C756.7 672.829 767.556 654.5 769.918 645.686C772.279 636.871 755.4 612.556 751.098 605.104C747.361 598.633 744.021 564.125 740.386 550.275C734.933 553.432 705.935 587.717 705.935 587.717C710.658 588.982 715.989 605.593 715.063 609.056C714.134 612.519 676.178 617.296 670.192 620.753C666.232 623.039 645.034 635.439 622.345 649.418C622.345 649.418 634.68 659.722 637.827 660.566C640.976 661.41 639.582 669.135 628.406 675.587C623.978 678.144 618.496 682.65 613.368 687.227C620.174 694.291 625.621 701.089 623.664 708.394C621.133 717.839 627.439 728.3 641.206 732.328C651.956 735.47 676.868 743.244 695.992 752.365C701.357 754.926 706.299 757.586 710.305 760.289C712.128 761.515 713.74 762.748 715.255 763.982C716.188 757.056 717.016 750.813 717.376 749.465C718.167 746.519 756.936 734.43 762.789 731.05Z" fill="#E6E9F0" stroke="white" stroke-width="4.4017" stroke-miterlimit="10"/>
<path d="M691.765 750.335C693.577 746.668 692.693 742.223 689.519 739.64C687.039 737.62 684.776 735.329 683.933 732.537C682.427 727.543 685.381 722.254 687.645 717.973C690.209 713.125 692.312 706.123 698.032 704.306C705.581 701.912 712.925 707.029 719.171 702.508C717.731 693.157 715.456 684.279 709.62 676.402C706.272 671.886 701.215 668.566 698.548 663.516C692.262 651.585 694.666 618.639 673.168 641.911C670.774 644.498 666.711 642.163 666.088 639.312C665.041 634.488 664.182 629.802 662.628 625.174C653.646 630.465 638.386 639.538 622.345 649.417C622.345 649.417 634.68 659.721 637.827 660.565C640.976 661.409 639.582 669.134 628.406 675.586C623.978 678.143 618.496 682.649 613.368 687.226C620.174 694.29 625.622 701.088 623.664 708.393C621.133 717.838 627.439 728.299 641.206 732.327C651.174 735.24 673.317 742.14 691.732 750.401C691.745 750.381 691.753 750.358 691.765 750.335Z" fill="#E6E9F0" stroke="white" stroke-width="4.4017" stroke-miterlimit="10"/>
<path d="M1033.35 617.414C1026.43 615.559 1015.24 594.341 997.869 569.779C994.463 564.959 991.926 560.883 990.023 557.336C982.234 542.799 985.535 537.496 987.315 529.837C989.531 520.309 970.761 503.47 968.688 499.879C966.613 496.285 970.867 450.19 965.567 441.009C960.267 431.829 947.259 424.97 934.036 421.427C920.815 417.883 890.441 433.026 885.718 431.761C885.108 431.597 883.493 431.112 881.151 430.394C881.153 430.397 887.782 437.489 864.733 447.956C841.686 458.426 821.34 475.42 813.1 483.271C804.862 491.125 812.361 505.956 804.509 510.49C796.66 515.021 759.005 514.184 755.247 516.354C751.493 518.521 752.03 510.544 745.111 514.539C738.195 518.532 734.413 538.1 738.716 545.553C739.281 546.533 739.838 548.182 740.385 550.276C744.021 564.127 747.361 598.634 751.097 605.105C755.4 612.557 772.278 636.872 769.917 645.687C767.555 654.501 756.7 672.83 761.31 680.815C765.918 688.796 768.642 727.672 762.789 731.051C756.935 734.431 718.166 746.52 717.376 749.465C717.016 750.813 716.188 757.056 715.255 763.982C727.384 773.856 730.435 783.533 734.889 786.696C738.808 778.089 742.619 769.393 743.434 766.352C745.232 759.636 780.156 745.151 791.332 738.698C802.508 732.246 837.423 768.144 843.277 764.764C849.133 761.383 871.591 750.194 871.846 744.191C872.105 738.187 864.107 732.781 865.652 727.01C867.312 720.819 881.741 713.395 886.53 710.63C891.321 707.864 899.185 716.876 906.703 712.535C914.222 708.194 919.026 711.605 923.217 718.864C927.41 726.127 935.984 747.43 938.749 752.22C941.514 757.008 940.32 766.924 946.751 773.144C953.183 779.367 962.139 787.324 972.252 781.485C982.363 775.648 982.245 749.816 982.245 749.816C982.92 747.297 988.977 738.12 1000.73 741.273C1012.48 744.42 1038.13 736 1044.52 732.312C1050.91 728.626 1079.47 741.225 1087.45 736.616C1095.43 732.007 1096.39 721.522 1094.24 717.795C1092.09 714.073 1077.2 722.826 1072.82 721.649C1068.43 720.474 1064.43 701.657 1059.82 693.674C1055.21 685.692 1047.12 683.973 1045.68 669.193C1044.25 654.414 1068.63 630.579 1068.63 630.579C1063.79 622.195 1040.28 619.27 1033.35 617.414Z" fill="#E6E9F0" stroke="white" stroke-width="4.4017" stroke-miterlimit="10"/>
<path d="M715.062 609.056C715.988 605.593 710.656 588.982 705.935 587.716C701.212 586.451 661.047 572.652 658.742 568.661C656.438 564.669 646.947 532.097 648.379 526.745C649.813 521.393 640.281 505.344 637.745 500.952C635.21 496.562 612.724 498.633 608.632 497.537C604.54 496.44 601.881 489.992 602.978 485.9C604.074 481.808 625.5 472.365 622.394 466.986C619.286 461.603 611.807 467.777 608.966 462.855C606.121 457.929 592.362 442.002 588.982 436.149C587.517 433.611 582.202 432.156 576.143 431.189C576.143 431.189 582.683 439.686 585.61 452.591C588.539 465.498 569.038 463.983 572.495 469.971C575.952 475.958 583.914 505.422 586.989 515.356C590.062 525.289 578.627 533.136 581.007 537.258C583.389 541.383 592.318 569.756 589.125 571.6C585.932 573.443 569.056 570.946 564.666 573.481C560.274 576.016 557.806 586.489 556.794 590.266C555.781 594.044 561.576 624.372 555.53 634.175C555.53 634.175 555.528 634.18 555.524 634.186C557.613 633.188 559.527 632.408 561.173 631.961C567.433 630.256 572.795 639.28 581.183 642.19C591.292 645.7 604.128 643.678 606.269 647.386C607.891 650.196 606.753 654.819 605.515 659.934C611.06 656.416 616.747 652.871 622.344 649.417C645.034 635.438 666.231 623.039 670.191 620.752C676.178 617.296 714.134 612.518 715.062 609.056Z" fill="#E6E9F0" stroke="white" stroke-width="4.4017" stroke-miterlimit="10"/>
<path d="M1218.11 626.767C1202.94 635.525 1177.22 650.904 1172.19 649.554C1177.89 653.846 1175.63 667.347 1173.69 674.587C1171.75 681.831 1183.88 682.715 1192.7 685.077C1201.51 687.44 1217.56 696.801 1218.22 704.4C1218.89 712.001 1227.38 719.338 1224.68 729.412C1221.98 739.486 1213.9 740.695 1208.47 734.515C1203.04 728.336 1201.98 715.908 1199.44 711.517C1196.91 707.125 1188.51 708.249 1182.06 715.168C1175.61 722.087 1163.85 717.164 1163.85 717.164C1162.51 722.201 1124.33 750.098 1122.64 756.395C1121.34 761.243 1126.28 765.963 1129.99 770.247C1131.09 771.526 1132.09 772.766 1132.78 773.955C1135.77 779.145 1163.97 762.07 1176.88 765.528C1189.78 768.986 1202.41 798.686 1207.02 806.669C1211.62 814.652 1209.23 867.657 1213.38 874.843C1217.53 882.028 1230.87 887.628 1235.48 895.61C1238.31 900.503 1245 917.46 1250.85 930.144C1254.53 938.151 1257.89 944.464 1259.71 944.953C1261.75 945.495 1267.54 943.476 1273.46 941.005C1272.29 939.125 1270.8 938.149 1268.83 938.624C1260.89 940.547 1256.5 924.187 1257.77 919.465C1259.03 914.742 1290.12 880.56 1288.89 873.82C1287.66 867.079 1274.23 842.9 1264 830.712C1253.77 818.523 1240.61 816.009 1239.81 802.636C1239.01 789.262 1253.82 764.213 1271.83 727.203C1289.85 690.19 1303.23 665.435 1296.32 653.462C1289.4 641.485 1272.28 634.873 1270.4 624.248C1268.53 613.622 1260.65 583.846 1255.3 582.412C1244.12 588.864 1243.81 597.555 1232.64 604.008C1221.46 610.46 1233.27 618.01 1218.11 626.767Z" fill="#E6E9F0" stroke="white" stroke-width="4.4017" stroke-miterlimit="10"/>
<path d="M360.984 444.368C360.978 445.15 360.883 445.929 360.746 446.701C360.889 445.925 360.974 445.152 360.984 444.368Z" fill="#E6E9F0" stroke="white" stroke-width="4.4017" stroke-miterlimit="10"/>
<path d="M359.847 449.711C359.468 450.553 358.996 451.382 358.397 452.195" stroke="white" stroke-width="4.4017" stroke-miterlimit="10"/>
<path d="M360.783 441.636C360.917 442.494 360.978 443.356 360.98 444.216C360.981 443.355 360.917 442.495 360.783 441.636Z" fill="#E6E9F0" stroke="white" stroke-width="4.4017" stroke-miterlimit="10"/>
<path d="M360.693 447.085C360.548 447.792 360.305 448.486 360.032 449.179C360.306 448.485 360.544 447.79 360.693 447.085Z" fill="#E6E9F0" stroke="white" stroke-width="4.4017" stroke-miterlimit="10"/>
<path d="M349.856 422.553C349.9 422.599 349.973 422.676 350.044 422.748C349.955 422.658 349.902 422.604 349.856 422.553Z" fill="#E6E9F0" stroke="white" stroke-width="4.4017" stroke-miterlimit="10"/>
<path d="M278.431 407.713C292.895 407.876 289.229 419.041 300.377 418.992C311.525 418.942 322.656 415.176 329.198 420.979C335.742 426.78 340.503 430.418 349.729 422.43C353.393 419.259 373.834 417.703 384.607 398.035C400.978 368.152 409.753 314.93 419.599 296.407C423.262 289.514 425.732 284.272 427.208 280.218C432.298 266.211 425.386 266.576 413.907 263.503C399.111 259.538 403.974 266.576 391.696 263.287C379.419 259.998 368.789 248.04 366.254 243.649C363.719 239.258 371.287 226.553 364.679 215.108C358.073 203.667 336.218 187.014 333.222 181.826C331.758 179.291 330.911 174.748 329.313 169.8C327.641 164.613 325.144 158.977 320.238 154.729C310.654 146.426 279.741 137.131 276.515 131.542C273.289 125.954 290.144 110.901 288.3 107.707C286.457 104.514 283.398 89.8275 270.374 76.5703L270.373 76.568C270.64 79.1787 270.482 81.4525 267.956 82.9108C261.036 86.9058 222.651 94.1652 204.519 113.15C186.384 132.135 167.55 130.236 160.309 147.189C154.004 161.949 144.838 181.031 138.705 187.965C151.535 205.824 166.669 224.184 165.022 230.328C162.212 240.823 137.84 254.536 133.906 269.228C129.97 283.92 120.06 283.961 115.705 298.542C111.349 313.119 91.3705 328.911 77.6393 343.225C63.9059 357.541 75.1921 375.859 75.1921 375.859C75.1921 375.859 84.1472 392.313 88.543 401.114C106.675 396.583 129.578 392.092 143.797 393.906C170.221 397.276 263.966 407.548 278.431 407.713Z" fill="#E6E9F0" stroke="white" stroke-width="4.4017" stroke-miterlimit="10"/>
<path d="M360.787 441.634C359.478 433.051 352.129 424.916 350.217 422.931C352.172 424.971 359.483 433.099 360.787 441.634Z" fill="#E6E9F0" stroke="white" stroke-width="4.4017" stroke-miterlimit="10"/>
<path d="M358.399 452.197C358.998 451.385 359.47 450.556 359.849 449.713C359.93 449.533 359.96 449.357 360.034 449.182C360.307 448.487 360.55 447.794 360.695 447.087C360.722 446.96 360.725 446.829 360.748 446.703C360.884 445.93 360.979 445.152 360.986 444.37C360.986 444.321 360.982 444.269 360.982 444.219C360.98 443.359 360.919 442.497 360.785 441.639C360.789 441.637 360.789 441.637 360.789 441.637C359.484 433.101 352.173 424.973 350.219 422.934C350.16 422.869 350.093 422.803 350.047 422.751C349.977 422.68 349.902 422.602 349.859 422.555C349.803 422.5 349.73 422.431 349.73 422.431C340.503 430.419 335.743 426.781 329.198 420.979C322.656 415.177 311.525 418.942 300.377 418.992C289.231 419.041 292.896 407.878 278.431 407.713C263.967 407.549 170.223 397.276 143.796 393.906C129.576 392.092 106.674 396.582 88.542 401.113C89.6564 403.792 90.3063 405.912 90.0585 406.837C88.9619 410.929 54.5338 427.347 47.349 431.495C40.1642 435.643 38.1683 436.796 43.1482 450.951C48.1276 465.106 61.3068 481.783 53.5094 489.478C45.7116 497.174 57.254 510.396 59.8671 519.532C62.4801 528.667 40.5834 542.375 16.2793 553.745C7.99739 557.62 -1.87744 562.166 -11.2963 566.476C-5.41494 576.253 10.7669 594.896 14.375 601.146C18.0623 607.532 36.1091 637.56 34.0853 645.115C33.8337 646.054 33.4929 647.02 33.0925 648.012C45.8388 642.765 57.0396 639.525 61.0249 635.237C66.7137 629.117 102.522 651.193 109.043 647.428C109.043 647.428 118.409 645.214 121.094 657.859C123.781 670.499 134.749 673.214 138.847 677.235C142.942 681.252 146.522 690.523 148.523 693.989C158.545 689.736 164.557 686.07 167.685 682.938C173.529 677.081 180.515 662.757 185.34 664.05C187.74 664.693 199.526 665.743 204.713 674.727C210.687 685.074 221.9 688.637 224.311 696.824C225.756 691.425 233.567 679.673 239.421 676.293C245.274 672.914 252.38 676.615 259.484 671.096C266.583 665.576 272.209 669.171 272.209 669.171C269.332 664.188 257.208 651.758 258.669 646.303C260.129 640.845 265.1 630.437 267.687 620.781C269.103 615.506 256.712 597.365 265.664 579.182C268.198 574.035 290.838 564.848 294.171 560.336C300.597 551.641 300.925 542.99 304.215 540.247C315.224 531.051 359.03 508.6 368.79 492.321C378.551 476.041 349.23 464.583 358.399 452.197Z" fill="#E6E9F0" stroke="white" stroke-width="4.4017" stroke-miterlimit="10"/>
<path d="M115.467 631.836C118.346 626.98 126.45 632.555 134.902 629.13C139.919 627.098 140.771 622.66 147.518 617.589C153.886 612.798 215.436 580.326 217.065 574.242C218.694 568.154 213.431 571.958 207.586 561.978C184.412 522.387 123.237 424.048 125.262 416.493C130.148 398.251 169.7 400.525 150.87 394.778C148.186 394.452 145.781 394.161 143.796 393.906C129.576 392.092 106.674 396.582 88.542 401.113C89.6564 403.792 90.3063 405.912 90.0585 406.837C88.9619 410.929 54.5338 427.347 47.349 431.495C40.1642 435.643 38.1682 436.796 43.1482 450.951C48.1276 465.106 61.3068 481.783 53.5094 489.478C45.7116 497.174 57.254 510.396 59.8671 519.532C62.4801 528.667 40.5834 542.375 16.2793 553.745C7.99739 557.62 -1.87744 562.166 -11.2963 566.476C-5.41494 576.253 10.7669 594.896 14.375 601.146C18.0623 607.532 36.1091 637.56 34.0853 645.115C33.8337 646.054 33.4929 647.02 33.0925 648.012C45.8388 642.765 57.0396 639.525 61.0249 635.237C66.7137 629.117 102.522 651.193 109.043 647.428C109.043 647.428 109.657 647.289 110.606 647.283C116.909 646.613 112.999 635.989 115.467 631.836Z" fill="#E6E9F0" stroke="white" stroke-width="4.4017" stroke-miterlimit="10"/>
<path d="M507.345 282.466C504.58 277.676 491.622 260.697 491.622 260.697C481.245 266.688 452.015 258.53 442.835 263.83C433.657 269.129 427.206 280.209 427.207 280.217C425.731 284.271 423.261 289.513 419.598 296.406C409.197 315.969 398.315 364.138 381.503 394.504C371.925 411.805 353.077 419.531 349.728 422.429C349.728 422.429 349.801 422.499 349.858 422.553C349.905 422.605 349.957 422.659 350.046 422.749C350.093 422.801 350.16 422.866 350.218 422.932C352.13 424.918 359.478 433.052 360.787 441.635C360.787 441.635 360.787 441.635 360.784 441.637C360.918 442.495 360.982 443.356 360.981 444.217C360.981 444.267 360.985 444.319 360.985 444.368C360.975 445.152 360.889 445.925 360.747 446.701C360.723 446.827 360.72 446.958 360.693 447.085C360.544 447.791 360.306 448.486 360.032 449.18C359.958 449.356 359.928 449.531 359.848 449.711C359.468 450.554 358.997 451.383 358.397 452.195C349.228 464.582 378.549 476.039 368.789 492.318C359.029 508.597 315.224 531.047 304.214 540.244C304.214 540.244 331.948 525.296 349.964 539.908C367.98 554.521 337.724 557.885 353.149 562.018C364.421 565.036 372.793 559.122 380.472 555.661C383.308 554.386 386.045 553.434 388.801 553.401C399.019 553.276 404.615 565.123 411.54 566.977C418.466 568.833 430.059 580.56 431.017 584.119C433.495 593.331 419.394 601.473 418.045 606.51C416.695 611.548 440.577 650.846 439.854 653.546C439.853 653.551 439.851 653.556 439.853 653.56C452.937 644.837 476.495 640.616 481.218 641.884C486.57 643.318 498.802 657.087 507.271 659.356C514.73 661.357 540.141 641.522 555.524 634.187C555.528 634.18 555.528 634.18 555.528 634.18C561.576 624.373 555.781 594.045 556.794 590.267C557.807 586.489 560.275 576.017 564.665 573.482C569.056 570.947 585.932 573.444 589.125 571.601C592.317 569.757 583.388 541.383 581.007 537.259C578.627 533.136 590.062 525.29 586.989 515.357C583.914 505.423 575.952 475.96 572.495 469.972C569.038 463.985 588.538 465.499 585.61 452.592C582.683 439.687 576.143 431.19 576.143 431.19C568.232 429.924 559.048 429.48 555.482 428.524C549.186 426.837 544.114 408.834 541.962 405.108C539.811 401.381 560.415 354.718 557.955 350.459C555.498 346.202 532.573 299.12 528.557 292.166C524.546 285.216 510.11 287.255 507.345 282.466Z" fill="#E6E9F0" stroke="white" stroke-width="4.4017" stroke-miterlimit="10"/>
<path d="M556.277 428.692C547.296 427.862 550.083 440.123 546.028 443.952C537.601 451.915 530.466 450.916 520.464 457.373C508.515 465.087 505.96 486.711 494.454 489.686C487.751 491.423 480.538 491.942 473.204 495.011C468.497 496.976 465.608 500.901 461.649 503.17C456.511 506.119 453.332 506.991 447.244 505.608C437.378 503.362 424.732 497.783 414.842 504.433C408.459 508.716 399.297 522.455 395.21 528.864C390.555 536.162 397.563 551.986 406.413 563.982C408.104 565.384 409.779 566.504 411.539 566.976C418.465 568.832 430.058 580.558 431.016 584.117C433.494 593.33 419.393 601.471 418.044 606.509C416.694 611.546 440.576 650.844 439.853 653.545C439.852 653.549 439.85 653.555 439.852 653.558C452.936 644.836 476.494 640.615 481.217 641.883C484.609 642.789 490.766 648.657 496.975 653.405C500.565 656.15 499.642 661.136 502.743 661.97C510.203 663.97 540.141 641.522 555.524 634.186C555.528 634.18 555.528 634.18 555.528 634.18C561.575 624.373 555.78 594.044 556.793 590.266C557.806 586.489 560.274 576.016 564.665 573.481C569.056 570.947 585.931 573.443 589.124 571.6C592.317 569.757 583.388 541.383 581.006 537.258C578.626 533.136 590.062 525.289 586.988 515.357C583.913 505.423 575.952 475.959 572.494 469.971C569.038 463.984 588.538 465.499 585.609 452.591C582.682 439.687 576.142 431.189 576.142 431.189C568.725 430 560.256 429.531 556.277 428.692Z" fill="#E6E9F0" stroke="white" stroke-width="4.4017" stroke-miterlimit="10"/>
<path d="M1176.88 765.53C1163.97 762.072 1135.78 779.146 1132.78 773.956C1132.09 772.766 1131.1 771.526 1129.99 770.249C1131.37 772.645 1118.26 784.914 1116.27 786.066C1114.27 787.218 1117.93 801.694 1113.54 804.228C1109.15 806.764 1107.51 824.206 1100.83 837.529C1094.15 850.852 1081.58 842.904 1064.02 853.044C1062.27 854.055 1060.77 855.039 1059.41 856.012C1047.12 864.751 1049.32 871.741 1042.82 876.656C1035.59 882.109 1027.31 876.847 1027.31 876.847C1027.73 877.597 1027.89 878.31 1027.72 878.968C1026.37 884.005 1013.95 901.822 1004.37 907.353C994.788 912.884 1016.93 937.707 1025.53 952.61C1034.13 967.51 1019.62 978.019 1016.96 979.555C1014.3 981.09 1025.26 993.925 1036.32 1013.08C1038.76 1017.31 1042.15 1023.08 1045.93 1029.54C1059.29 1052.3 1077.61 1083.6 1076.92 1086.15C1076.05 1089.41 1074.93 1099.01 1073.46 1104.46C1072 1109.92 1056.49 1117.46 1052.71 1116.45C1048.93 1115.44 1040.91 1103.39 1036.66 1105.85C1032.4 1108.31 1034.68 1112.14 1033.06 1118.19C1033.06 1118.2 1033.05 1118.21 1033.05 1118.22C1035.61 1119.65 1038.09 1121.12 1040.35 1122.7C1053.71 1132.01 1067.39 1149.29 1079.15 1152.45C1090.92 1155.6 1098.83 1173.03 1099.98 1175.02C1101.13 1177.02 1094.23 1180.7 1099.62 1182.14C1105.01 1183.59 1118.57 1193.56 1130.1 1193.29C1141.62 1193.02 1145.03 1187.86 1151.23 1181.09C1157.43 1174.31 1165.43 1161.71 1184.85 1150.5C1204.27 1139.29 1245.45 1114.38 1249.98 1097.46C1254.51 1080.55 1264.03 1003.13 1270.85 992.814C1277.66 982.493 1281.93 977.901 1279.48 968.135C1277.64 960.79 1277.04 946.715 1273.46 941.007C1267.54 943.478 1261.75 945.498 1259.71 944.956C1265.27 952.896 1265.38 958.171 1264.82 960.28C1264.26 962.385 1262.31 966.343 1255.34 967.175C1248.37 968.008 1241.78 966.84 1239.76 963.344C1237.74 959.849 1232.17 943.647 1237.65 937.77C1243.12 931.889 1250.84 930.15 1250.84 930.15C1245 917.464 1238.31 900.507 1235.48 895.614C1230.87 887.631 1217.53 882.031 1213.38 874.847C1209.23 867.661 1211.63 814.656 1207.02 806.673C1202.41 798.69 1189.79 768.987 1176.88 765.53Z" fill="#011E60" stroke="white" stroke-width="4.4017" stroke-miterlimit="10"/>
<path d="M1176.88 765.53C1163.97 762.072 1135.78 779.146 1132.78 773.957C1132.09 772.766 1131.09 771.526 1129.99 770.249C1131.37 772.645 1118.26 784.914 1116.27 786.066C1114.27 787.218 1117.93 801.694 1113.54 804.228C1109.15 806.764 1107.51 824.206 1100.83 837.529C1094.15 850.852 1081.58 842.904 1064.02 853.044C1062.27 854.055 1060.77 855.039 1059.41 856.012C1047.12 864.751 1049.32 871.741 1042.82 876.656C1035.59 882.109 1027.31 876.847 1027.31 876.847C1027.73 877.598 1027.89 878.31 1027.72 878.968C1026.37 884.006 1013.95 901.822 1004.37 907.353C994.788 912.884 1016.93 937.708 1025.53 952.61C1034.13 967.51 1019.62 978.019 1016.96 979.555C1014.3 981.09 1025.26 993.925 1036.32 1013.08C1038.68 1017.17 1041.92 1022.7 1045.55 1028.88C1052.17 1027.76 1058.51 1028.55 1064.21 1033.18C1067.57 1035.9 1068.99 1041.49 1072.12 1043.81C1079.57 1049.36 1091.17 1044.05 1097.36 1038.87C1109.86 1028.39 1100.32 1015.21 1107.48 1003.14C1111.51 996.355 1113.77 999.816 1120.27 998.47C1129.33 996.591 1140.58 987.41 1144.19 980.069C1148.14 972.046 1147.13 964.001 1148.2 955.294C1149.98 940.707 1153.69 926.885 1160.23 913.695C1171 891.976 1193 884.486 1214.8 876.758C1214.29 876.124 1213.76 875.496 1213.38 874.845C1209.23 867.659 1211.63 814.654 1207.02 806.671C1202.41 798.688 1189.79 768.987 1176.88 765.53Z" fill="#E6E9F0" stroke="white" stroke-width="4.4017" stroke-miterlimit="10"/>
<path d="M1176.88 765.529C1163.97 762.071 1135.78 779.145 1132.78 773.956C1132.09 772.766 1131.1 771.526 1129.99 770.248C1131.37 772.644 1118.26 784.913 1116.27 786.065C1114.27 787.217 1117.93 801.693 1113.54 804.228C1109.15 806.763 1107.51 824.205 1100.83 837.528C1094.15 850.851 1081.58 842.903 1064.02 853.043C1063.85 853.138 1063.72 853.226 1063.56 853.323C1071.76 855.734 1078.96 860.569 1086.84 865.509C1096.23 871.397 1104.15 875.195 1115.47 874.176C1120.59 873.717 1123.81 872.157 1128.8 874.125C1134.74 876.464 1137.09 881.656 1141.23 886.005C1149.51 894.723 1154.86 894.727 1165.84 894.284C1169.34 894.143 1173.03 894 1176.4 894.566C1187.4 886.349 1201.14 881.596 1214.8 876.755C1214.29 876.121 1213.76 875.494 1213.38 874.843C1209.23 867.657 1211.63 814.651 1207.02 806.668C1202.41 798.685 1189.79 768.986 1176.88 765.529Z" fill="#E6E9F0" stroke="white" stroke-width="4.4017" stroke-miterlimit="10"/>
<path d="M877.838 959.819C889.171 962.855 941.193 928.208 953.433 921.142C965.673 914.075 964.262 922.694 972.413 920.83C980.561 918.965 1005.98 892.934 1005.98 892.934L1027.31 876.844C1024.53 871.862 1010 865.331 1002.97 863.452C994.892 861.283 974.735 815.928 975.832 811.837C976.929 807.745 1002.3 785.779 1007.62 782.706C1012.94 779.633 996.379 774.294 993 768.442C989.621 762.589 981.57 752.334 982.246 749.815C982.246 749.815 983.496 756.898 973.385 762.736C967.361 766.214 966.379 772.801 961.136 775.151C957.582 776.744 961.108 762.839 958.511 760.327C952.079 754.104 941.514 757.009 938.749 752.22C935.984 747.43 927.411 726.128 923.217 718.864C919.026 711.606 914.222 708.195 906.703 712.536C899.186 716.876 891.321 707.864 886.531 710.63C881.741 713.395 867.313 720.818 865.653 727.01C864.107 732.781 872.105 738.187 871.847 744.192C871.592 750.194 849.134 761.383 843.277 764.765C837.423 768.144 802.508 732.246 791.332 738.699C780.156 745.151 745.232 759.636 743.434 766.352C742.619 769.394 738.808 778.089 734.889 786.697C735.471 787.108 736.072 787.435 736.721 787.612C743.018 789.299 776.403 801.955 781.474 810.738C786.544 819.519 779.061 827.298 785.672 829.068C792.283 830.84 812.148 843.585 819.618 864.82C827.086 886.052 810.137 892.645 814.285 899.83C818.434 907.015 832.281 948.513 833.236 957.542C833.723 962.154 836.838 968.173 841.026 973.792C847.524 964.597 855.603 962.219 856.453 959.04C858.256 952.323 866.505 956.782 877.838 959.819Z" fill="#E6E9F0" stroke="white" stroke-width="4.4017" stroke-miterlimit="10"/>
<path d="M1036.66 1105.85C1040.91 1103.39 1048.93 1115.43 1052.71 1116.45C1056.49 1117.46 1072 1109.92 1073.46 1104.46C1074.93 1099.01 1076.05 1089.41 1076.93 1086.15C1077.61 1083.6 1059.29 1052.3 1045.94 1029.54C1042.15 1023.08 1038.76 1017.31 1036.32 1013.08C1025.26 993.923 1014.3 981.089 1016.96 979.553C1019.62 978.018 1034.13 967.508 1025.53 952.608C1016.93 937.706 994.787 912.883 1004.37 907.352C1013.95 901.821 1026.37 884.004 1027.72 878.967C1027.89 878.308 1027.73 877.595 1027.31 876.845L1005.98 892.935C1005.98 892.935 980.563 918.966 972.415 920.831C964.265 922.695 965.675 914.076 953.435 921.143C941.195 928.21 889.173 962.857 877.84 959.82C866.507 956.783 858.257 952.324 856.455 959.041C855.605 962.221 847.527 964.598 841.028 973.793C845.028 979.167 850.012 984.178 854.638 987.233C864.098 993.479 888.635 996.343 910.767 1010.71C932.898 1025.07 941.499 1030.75 945.876 1038.33C950.256 1045.92 981.147 1089.29 994.279 1098.2C1005.19 1105.61 1020.5 1111.2 1033.05 1118.22C1033.05 1118.21 1033.06 1118.2 1033.06 1118.19C1034.68 1112.14 1032.4 1108.3 1036.66 1105.85Z" fill="#E6E9F0" stroke="white" stroke-width="4.4017" stroke-miterlimit="10"/>
<path d="M1377.02 529.566C1372.3 528.299 1373.16 533.929 1374.91 542.497C1376.66 551.064 1374.71 549.528 1369.2 557.499C1363.69 565.469 1373.6 582.635 1372.76 585.782C1371.91 588.93 1367.19 592.724 1361.95 598.406C1356.72 604.09 1368.66 603.578 1357.57 614.776C1346.47 625.973 1332.2 637.671 1330.26 644.911C1328.32 652.151 1333.01 664.878 1330.9 672.75C1328.79 680.619 1353.05 690.83 1357.56 704.187C1362.08 717.545 1351.7 747.49 1354.92 753.077C1358.15 758.665 1367.1 766.802 1368.72 769.595C1370.33 772.39 1379.51 804.878 1384.78 806.626C1390.04 808.376 1402.09 811.266 1411.85 813.879C1421.61 816.495 1427.39 787.341 1434.98 782.963C1442.56 778.585 1419.49 669.496 1420 653.773C1420.5 638.049 1401.94 617.895 1404.3 609.08C1406.67 600.267 1406.2 585.633 1402.05 578.448C1397.91 571.263 1412.19 582.177 1416.18 579.872C1420.17 577.568 1410.57 565.548 1402.81 556.72C1395.06 547.894 1381.75 530.83 1377.02 529.566Z" fill="#E6E9F0" stroke="white" stroke-width="4.4017" stroke-miterlimit="10"/>
<path d="M1230.02 1010.39C1224.7 1013.46 1225.32 1011.47 1219.65 1015.1C1216.36 1017.2 1213.29 1025.86 1211.72 1031.74C1210.14 1037.62 1206.84 1045.42 1209.75 1047.99C1212.66 1050.57 1218 1051.23 1225.57 1055.73C1233.13 1060.23 1227.35 1048.67 1234.79 1043.84C1239.69 1040.65 1236.65 1035.79 1238.9 1027.39C1241.15 1019 1248.39 1018.27 1246.24 1014.54C1244.09 1010.82 1235.34 1007.32 1230.02 1010.39Z" fill="#E6E9F0" stroke="white" stroke-width="4.4017" stroke-miterlimit="10"/>
<path d="M-17.4076 675.402C-17.4076 675.402 -15.2445 667.072 -10.1344 664.933C-5.02642 662.79 -0.847107 670.231 -2.68172 674.709C-4.51644 679.185 -18.4842 678.427 -17.4076 675.402Z" fill="#E6E9F0" stroke="white" stroke-width="4.4017" stroke-miterlimit="10"/>
<path d="M1208.48 509.919C1208.48 509.919 1204.23 514.854 1201.29 514.067C1198.36 513.282 1195.29 510.436 1198.22 508.745C1201.15 507.056 1209.04 507.821 1208.48 509.919Z" fill="#E6E9F0" stroke="white" stroke-width="4.4017" stroke-miterlimit="10"/>
</svg>
